<?xml version="1.0" encoding="utf-8"?>
<!-- Generator: Adobe Illustrator 19.2.1, SVG Export Plug-In . SVG Version: 6.00 Build 0)  -->
<!DOCTYPE svg PUBLIC "-//W3C//DTD SVG 1.1//EN" "http://www.w3.org/Graphics/SVG/1.1/DTD/svg11.dtd">
<svg version="1.1" id="Layer_1" xmlns="http://www.w3.org/2000/svg" xmlns:xlink="http://www.w3.org/1999/xlink" x="0px" y="0px"
	 viewBox="0 0 543.1 456.9" enable-background="new 0 0 543.1 456.9" xml:space="preserve">
<linearGradient id="SVGID_1_" gradientUnits="userSpaceOnUse" x1="-4.3562" y1="319.4914" x2="173.3034" y2="272.6829">
	<stop  offset="0" style="stop-color:#87B1D2;stop-opacity:0.3"/>
	<stop  offset="1" style="stop-color:#87B1D2"/>
</linearGradient>
<path fill="url(#SVGID_1_)" d="M134.7,250.2c0,0-2.5,17.8-3.8,23.8s-6.8,28.5-7,32.5s-1.5,8.5,1.3,9.3s27.5,4.3,30,4.5
	c2,4,7,6.8,9.8,8c-2.3,5-3,15.3-3,15.3s-6.3-1.8-8-2.3c-1.5-7.5-3.3-12.3-4.3-12.3s-1.3,0.3-0.8,2.8s1.3,7,1,9c-7-2-14-3.8-16.3-4.3
	c-3.3-4-4-6-6-6s-0.3,1,0.5,2.5s2.3,3.8,2.3,3.8s-5.3-1.5-10.8-2.5s-12-2-18.8-2.8s-23,0.8-23,0.8s-9.3-1.3-19.3-1s-18.8,1-21,4.8
	s-3.5,7.3-3,17.5s-1.5,36.3-1.3,45.8c-3.7,6.8-6,11.3-4.7,14.3s4.5,9.3,11,10.3s12,0,12,0s12.5,4,21,4.5s17.8,0,25.5,0
	c23.5,5.8,44.5,9.8,56,11.5s14.8,2,24.3,3.5s30,4.5,45,4.8s46.3,0.8,50.3,0s6.5-2.8,6.3-3.5s-1.3-2-1.3-2s-1-3-0.8-7s2-27,2-27
	l1.7,2c0,0,1,14.3,0.3,18.3s-1.9,9.8,0.3,11s5.2,1.5,12.2,1.5s18.3-0.5,18.3-0.5s3.8,6.5,12,9.8c8.3,3.3,22.8,4.8,30.5,3.3
	s54-16.3,66.5-21.3c22.5-3.8,53-11.3,53-11.3s19,1,33.3-1s20.8-6.3,20.8-6.3s6.3-0.3,7.8-2.8s4.5-2,3.8-7.5s-4.5-12.8-4.5-12.8
	s1.5-24,1.3-31.3s0.5-22.5-2-26.3s-5.3-5-13.3-6.5s-41.5-3.5-48.8-3s-29.8,4.8-29.8,4.8s2.5-2.8,0.8-3s-4.3,4-4.3,4
	s-17.5,0.5-22.5,3.5c4-5.8,5-10.5,3.3-10.5s-3.8,2.8-5.3,6.8s-3,5.8-3,5.8l-5.3,2c0,0-2.3-2.8-3.5-2.8s-0.3-2.5-1.5-2.5s-4,7-4,7
	l-3.8,1c0,0-11.8-47.3-13.8-50.8s-6.5-5.5-7.8-5.8c-0.3-1.5-0.3-1.5-0.3-1.5s3.5-2.8,3.3-6.3s-3.3-4.3-5.8-7.8s-6.8-5.5-6.8-5.5
	s0.8-2.3-1.3-5.3c-2-3-4-5.5-4-5.5s0.8-3.3,0.5-7.5c1.5,5.5,4.5,3.8,4.5,3.8s2.3,3,6,5.3s6.3,1.3,8,2.5c1.8,1.3,4,4.3,6.5,7.3
	s7.8,4.5,9.8,4.5s3.8-1.8,3.8-1.8s7.8,1.5,11.3,0.8s7.3-3,7.3-3s7.5-2,12-2.8c7.3,4.8,10.8,6.3,12.3,6.3s10-12.5,10.8-13.5
	c2.5-1.3,7.8-10.8,10.5-15s7-7.3,7-7.3s6.5,0,10-3s7.3-11.5,8-16s3.5-33.5-3-52.3s-9.8-18.5-17.3-22s-13.3-3-15.8-6
	s-8.3-8.3-14.8-9.8s-10.3-0.5-12,2.8s-7,9.5-9,11.5s-5.8,5.8-5.8,5.8s-7.3-9-10.8-12.8s-6-13.8-8.8-16.8s-30.5-16-38.3-18.3
	c-1.8-3.5-6.3-6.3-10.3-9.3c0.8-7.5,2.8-9.5,2-12.3s-0.8-7-0.8-7c1.5-7.8,2.5-16.3,2.5-19.5s-2-7-2-7s-0.5-6.3-3-7.7
	c-2.8-6.8-7-11.8-9.3-14.5S317.2,3.4,311.5,3.4s-6.3,1.3-10.8,1.3s-7.3-1.3-12.5,2.8s-16,12.8-20.5,26.5c-3.5,2-4.3,3.3-4,7
	s1.3,22.8,2.5,25.8s2.8,3.8,3.8,6.3s0.8,4.8,0.8,4.8s-3.8-2-8.3-1.5s-18.5,4.5-24.3,6.5s-13.5,1.8-19,4.5s-18,12.5-21.8,17.8
	c-9.5,6-17,10.8-21.5,14.8s-6.3,5.8-13.8,7.3s-11.3,5-14.8,9s-14,17.3-16.5,25s-5.3,16.3-3.8,21.8c-2,1.3,0.3,5,0.3,5s-3,3.3-1.8,7
	c-3,5-2.3,9,1.3,13.5c1.8,5.8,4.8,7.5,6,10s-0.5,4.5,0,8.3s2.8,11.3,2.8,11.3L10.5,116.2c0,0-7.8,5.3-8,7.5L134.7,250.2z"/>
</svg>
