<?xml version="1.0" encoding="utf-8"?>
<!-- Generator: Adobe Illustrator 19.2.1, SVG Export Plug-In . SVG Version: 6.00 Build 0)  -->
<!DOCTYPE svg PUBLIC "-//W3C//DTD SVG 1.1//EN" "http://www.w3.org/Graphics/SVG/1.1/DTD/svg11.dtd">
<svg version="1.1" id="Layer_1" xmlns="http://www.w3.org/2000/svg" xmlns:xlink="http://www.w3.org/1999/xlink" x="0px" y="0px"
	 viewBox="0 0 500.8 523.9" enable-background="new 0 0 500.8 523.9" xml:space="preserve">
<radialGradient id="SVGID_1_" cx="353.5086" cy="508.6084" r="127.0399" gradientTransform="matrix(0.9994 3.468952e-002 -2.458368e-003 7.082509e-002 1.4631 460.3231)" gradientUnits="userSpaceOnUse">
	<stop  offset="0" style="stop-color:#000000;stop-opacity:0.15"/>
	<stop  offset="0.954" style="stop-color:#000000;stop-opacity:0"/>
</radialGradient>
<path fill="url(#SVGID_1_)" d="M481.9,514.1c-0.3,6-57.9,8.4-128.8,5.4s-128.2-10.3-127.9-16.3c0.3-6,57.9-8.4,128.8-5.4
	C424.9,500.8,482.1,508.1,481.9,514.1z"/>
<linearGradient id="SVGID_2_" gradientUnits="userSpaceOnUse" x1="214.7634" y1="506.0641" x2="288.0134" y2="347.3141">
	<stop  offset="0" style="stop-color:#86B0D1;stop-opacity:0.3"/>
	<stop  offset="1" style="stop-color:#86B0D1"/>
</linearGradient>
<path fill="url(#SVGID_2_)" d="M325.5,326.6c-5.5-7.3-22.3,0-43.8,5.3c-18.6,4.5-38.5,9.8-48.1,15.1c0.8,0.6,0.8,0.7,0.8,0.7l-1,2.8
	l2.6,1.8c0,0-7.1,7.3-9,12.1c-1.9,4.9-3.6,11.5-4,19.1s-0.7,21.2,0.3,25.5c-1.2,6.1,0.3,21.7,1,27.1c0.7,8.3,5.2,27.8,5.2,27.8
	s0.5,0.5,1.2,1c-2.8,3.6-5,6.6-9.7,9c-4.7,2.4-13,5.7-13,5.7l-0.7,1.7c0,0-5.9,1-7.1,2.6c-1.2,1.6-3.1,7.5-2.6,10.4
	c0.5,3,1.9,4,1.9,4s-1.2,3.5-2.1,5c-0.9,1.6-3.5,3.6-1.4,4.9c2.1,1.2,24.1,0.9,40.1-1.4c16-2.3,26.2-3.3,28.8-5.4
	c2.6-2.1,2.3-3.6,2.3-3.6s-3.3-4.2-3.8-8.5c3.8-3.1,4.7-4.5,3.8-9.2c-0.9-4.7-4.4-18.1-3.3-24c0,0,0.2-3.8,0.7-6.8
	c0.5-3-1.4-9.9,0.2-17c1.6-7.1,3.8-15.1-0.3-29.2c-0.7-3.6-2.3-5.4-1.6-6.8s3.3-6.4,3.1-8.3c1.5-2.1,4.3-4.5,3.5-6.8
	c2.4-1.2,7.5-4.9,9.2-7.5c3.6,1.2,8.5,3.3,9.4,4.7c1.2-3.5,3-5.2,6.6-9.7c3.6-4.5,7.6-9.6,10.2-12.7c2.6-3.1,1.6-5.4,1.6-5.4
	s11.3-9.7,13.9-12.5c4.2,0.9,7.3,1,7.3,1s3,2.4,4.5,4.2c2.5,5.3,4.3,9.5,6,13.2C340.9,346.5,330.4,333,325.5,326.6z M249.9,500.6
	c-1.7,0.5-27.1,2.6-27.1,2.6s19.3-3.8,21-4.3c1.7-0.5,6.1-1.7,6.1-1.7C251.1,498.3,251.6,500.1,249.9,500.6z"/>
<path fill="#87B1D2" d="M500,507.9c-1.7-3.8-6.4-7.8-6.9-9.9c-0.5-2.1-0.9-5.6,0.3-7.1s2.3-2.1,0.2-5.4c-2.1-3.3-12-19.6-12.9-22.9
	c-0.9-3.3-4.9-4.7-6.1-9.7c-5.2-9.4-15.1-22.1-21.7-29s-16-18.4-20.8-22.2c-4.9-3.8-13.9-12-17.4-13.2s-6.4-5.7-7.6-7.1
	c-1.2-1.4-3.5-4.5-3.5-4.5s3.3-0.5,3-2.4s-1.6-3-1.6-3s0.7-1.7,0.3-5.2c-0.3-3.5-7.8-38-10.9-46.4s-6.8-12-6.8-14.6s0.5-6.3,0-7.8
	s-1.9-0.7-2.4-2.3c-0.5-1.6-4.7-13.9-4.7-13.9s4.2-2.8,5-3.8c-6.3-11.3-21.7-27.8-25.9-32s-7.5-6.3-9-7.6c0.5-3.1,0-5.4-1.6-5.9
	c-1.6-0.5-3.5-3.8-4.2-3.1c-1.6-4-4.5-6.1-6.4-6.8s-9.9-1-11.3-1.7c-2.4-3.1-9.6-5.4-12.7-5.9c-1.4-3-0.2-5.4-0.2-5.4
	s-10.4-6.3-13.9-8.3c-3.5-2.1-3-4-7.8-6.6c-4.9-2.6-22.1-9.4-26.6-11.1c-4.5-1.7-14.4-3.8-14.4-3.8s-1.4-2.8-1.2-6.1
	c0.2-3.3-5.6-10.1-5.6-10.1l-2.4-0.5c0,0-1.7-3-3-3.8c-1.2-0.9-6.1-3.5-6.1-3.5s-1.2-2.1-3.3-3.1c-2.1-1-4.2-0.9-4.2-0.9l-1,2.6
	c0,0-2.6,0.7-5,1.6c-4.9-3.5-9.9-7.8-14.8-9.4c-4.9-1.6-6.9-3.5-11.6-3.5s-9.7,0.2-9.7,0.2s-3.3-2.3-6.6-1.6c-3.3,0.7-13,4.2-15.3,4
	c-2.3-0.2-4.5,0-4.5,0s-2.6-8.7-7.8-12.2c-5.2-3.5-19.8-2.3-19.8-2.3l-1.7,0.9c0,0-0.9-0.5-3.6-0.5c-2.8,0-7.8,1.6-9.4,2.3
	s-3,1.7-3,1.7S61.4,44.2,56.8,37.4c-4.7-6.8-9.2-11.8-16.5-17.9S22.5,6.8,17.7,5.1S8.3,2,5.5,2.1C2.7,2.3,1,4.2,4.1,7
	c3.1,2.8,9,3.1,15.3,6.6c6.3,3.5,15.6,8.9,23.8,18.1s11.6,10.6,17.9,22.8s41.7,79,41.7,79s-5.6-0.9-7.6,1.6
	c-2.1,2.4-3.8,5.9-1.6,8.7c2.3,2.8,5,4.3,5,4.3s-2.1,2.8-0.5,5.2c1.6,2.4,6.6,6.3,6.6,6.3s-1.7,3.1,1,5.4s7.1,3.5,9.2,3.5
	c2.1,0,6.4,0,6.4,0l82.8,148.3l-7.8,6.8l-0.3,3.5l0.9,1.4l-0.9,2.1l0.3,2.8l1,1c0,0,0.2,2.6,0.7,4c0.5,1.4,1.9,2.6,1.9,2.6l1.7,4.9
	l1.2,1.2c0,0,0.2,1.6,1.2,3s3.5,2.4,5.9,2.3c2.4-0.2,12-0.9,14.2-1.7c2.3-0.9,5.2-2.8,5.2-2.8s2.4-0.2,3.6-1c1.2,1,1.2,1,1.2,1
	c10.1-2.5,16.6-1.2,37.1-8.2s40.3-12,44.8-10.3c3.8,1.5,8.5,3,11.7,10.3c0.7,0.6,3,2.5,4.3,4c5.4,11.6,8,18.1,12,25.2
	c4,7.1,6.4,13,7.6,16.8s3.5,7.6,3.5,7.6s3.3,0.3,5.2-0.3c4.9,9.4,5,12.2,9,17.2c4,5,9.2,11.1,16.3,14.6c7.1,3.5,14.6,8.3,16.3,9.6
	c1.7,1.2,7.8,8.9,10.9,12s7.3,6.6,12,10.6c4.7,4,20.5,16.2,23.4,17.5s6.4-0.5,6.4-0.5s1.9,3.5,1.4,5.6c-0.5,2.1-2.1,10.4-4.9,12.9
	c-2.8,2.4-4.3,6.9-1,13.4c2.4,0.3,4,0.2,4,0.2c-0.5,4.5-1.9,6.8-2.6,8.3c-0.7,1.6-1.9,3.1,0.5,4.7c2.4,1.6,14.4,3,20.8,2.3
	c6.4-0.7,23.8-5.2,25.5-6.1C500.5,514,501.7,511.7,500,507.9z M254.1,297.2c-1.6,0.9-3.6,3.8-6.3,5.6c-2.6,1.7-2.3,5.2-4,5.4
	c-1.7,0.2-3-0.5-5.6,3c-2.1-3.1-6.1-3.6-9.9-4.2c-3.8-0.5-10.6,1.2-13.9,3.8c-3.5,0.7-5.4,2.3-5.4,2.3L133,174.4c0,0,6.1,0,8-0.9
	c1.9-0.9,0.3-3.5,0.3-3.5s5.6-0.3,8.2,1.6s13.2,6.1,17.5,6.6c4.3,0.5,11.3,3.5,11.3,3.5s0.9,3.8,5,6.3c4.2,2.4,6.1,6.6,9,11.6
	s6.9,12,11.1,19.5s9.2,15.5,14.9,22.9c-0.2,3.3,2.4,8.9,5.2,12.3c2.8,3.5,6.4,10.4,8.7,14.2s6.4,4.2,12.2,7.1
	c5.7,3,11.1,4.9,11.1,4.9s-1.6,1.7-1.6,4.2c0,2.4,2.4,12.2,2.4,12.2S255.6,296.4,254.1,297.2z M474.1,515.3c-4.9,0-8.8-1-8.8-1
	s-0.7-5,1.2-5c2.8,0,5.6-0.4,7.9-0.7C475,510.6,475.1,513.6,474.1,515.3z M491.3,510.3c-0.5,0.6-1.9,1.5-4.2,2.3
	c-1.9-1.3-4-3.4-5.3-5.1c2-0.5,5.3-2.2,5.3-2.2S492.2,509.2,491.3,510.3z"/>
</svg>
