<?xml version="1.0" encoding="utf-8"?>
<!-- Generator: Adobe Illustrator 19.2.1, SVG Export Plug-In . SVG Version: 6.00 Build 0)  -->
<!DOCTYPE svg PUBLIC "-//W3C//DTD SVG 1.1//EN" "http://www.w3.org/Graphics/SVG/1.1/DTD/svg11.dtd">
<svg version="1.1" id="Layer_1" xmlns="http://www.w3.org/2000/svg" xmlns:xlink="http://www.w3.org/1999/xlink" x="0px" y="0px"
	 viewBox="0 0 500.8 523.9" enable-background="new 0 0 500.8 523.9" xml:space="preserve">
<linearGradient id="SVGID_1_" gradientUnits="userSpaceOnUse" x1="214.7634" y1="506.0641" x2="288.0134" y2="347.3141">
	<stop  offset="0" style="stop-color:#86B0D1;stop-opacity:0.3"/>
	<stop  offset="1" style="stop-color:#86B0D1"/>
</linearGradient>
<path fill="url(#SVGID_1_)" d="M325.5,326.6c-5.5-7.3-22.3,0-43.8,5.3c-18.6,4.5-38.5,9.8-48.1,15.1c0.8,0.6,0.8,0.7,0.8,0.7l-1,2.8
	l2.6,1.8c0,0-7.1,7.3-9,12.1c-1.9,4.9-3.6,11.5-4,19.1s-0.7,21.2,0.3,25.5c-1.2,6.1,0.3,21.7,1,27.1c0.7,8.3,5.2,27.8,5.2,27.8
	s0.5,0.5,1.2,1c-2.8,3.6-5,6.6-9.7,9c-4.7,2.4-13,5.7-13,5.7l-0.7,1.7c0,0-5.9,1-7.1,2.6c-1.2,1.6-3.1,7.5-2.6,10.4
	c0.5,3,1.9,4,1.9,4s-1.2,3.5-2.1,5c-0.9,1.6-3.5,3.6-1.4,4.9c2.1,1.2,24.1,0.9,40.1-1.4c16-2.3,26.2-3.3,28.8-5.4
	c2.6-2.1,2.3-3.6,2.3-3.6s-3.3-4.2-3.8-8.5c3.8-3.1,4.7-4.5,3.8-9.2c-0.9-4.7-4.4-18.1-3.3-24c0,0,0.2-3.8,0.7-6.8
	c0.5-3-1.4-9.9,0.2-17c1.6-7.1,3.8-15.1-0.3-29.2c-0.7-3.6-2.3-5.4-1.6-6.8s3.3-6.4,3.1-8.3c1.5-2.1,4.3-4.5,3.5-6.8
	c2.4-1.2,7.5-4.9,9.2-7.5c3.6,1.2,8.5,3.3,9.4,4.7c1.2-3.5,3-5.2,6.6-9.7c3.6-4.5,7.6-9.6,10.2-12.7c2.6-3.1,1.6-5.4,1.6-5.4
	s11.3-9.7,13.9-12.5c4.2,0.9,7.3,1,7.3,1s3,2.4,4.5,4.2c2.5,5.3,4.3,9.5,6,13.2C340.9,346.5,330.4,333,325.5,326.6z M249.9,500.6
	c-1.7,0.5-27.1,2.6-27.1,2.6s19.3-3.8,21-4.3c1.7-0.5,6.1-1.7,6.1-1.7C251.1,498.3,251.6,500.1,249.9,500.6z"/>
</svg>
